<svg xmlns="http://www.w3.org/2000/svg" viewBox="0 0 282 281" width="130" height="130">
	<style>
		tspan { white-space:pre }
		.shp0 { fill: #11100e } 
		.shp1 { fill: #ffffff } 
	</style>
	<g id="g10">
		<g id="g12">
			<path id="path14" fill-rule="evenodd" class="shp0" d="M281.96 -0.99L281.96 282.96L-2 282.96L-2 -0.99L281.96 -0.99ZM274.23 6.73L5.73 6.73L5.73 275.23L274.23 275.23L274.23 6.73ZM271.65 272.65L8.31 272.65L8.31 9.3L271.65 9.3L271.65 272.65Z" />
			<path id="path16" fill-rule="evenodd" class="shp1" d="M274.65 275.64L5.32 275.64L5.32 6.31L274.65 6.31L274.65 275.64ZM7.98 272.98L271.98 272.98L271.98 8.98L7.98 8.98L7.98 272.98Z" />
			<path id="path18" class="shp1" d="M59.39 53.83L76.83 93.47L76.98 93.47L94.35 53.83L102.5 53.83L102.5 103.46L96.62 103.46L96.62 62.69L96.4 62.69L79.53 100.55L74.21 100.55L57.34 62.62L57.2 62.62L57.2 103.46L51.24 103.46L51.24 53.83L59.39 53.83Z" />
			<path id="path20" fill-rule="evenodd" class="shp1" d="M149.15 53.12C163.33 53.12 174.53 64.54 174.53 78.57C174.53 93.04 162.84 104.17 149.15 104.17C135.11 104.17 123.7 92.83 123.7 78.57C123.7 64.04 135.54 53.12 149.15 53.12ZM168.3 78.65C168.3 67.37 160.07 58.51 149.01 58.51C138.16 58.51 129.94 67.23 129.94 78.65C129.94 90.06 138.16 98.78 149.15 98.78C160.14 98.78 168.3 90.06 168.3 78.65Z" />
			<path id="path22" class="shp1" d="M201.83 53.83L217.5 77.44L228.27 94.17L228.42 94.17L228.13 74.32L228.13 53.83L234.02 53.83L234.02 103.46L227.85 103.46L212.04 79.07L201.47 62.76L201.33 62.76L201.62 79L201.62 103.46L195.66 103.46L195.66 53.83L201.83 53.83Z" />
			<path id="path24" class="shp1" d="M59.96 120.5L59.96 160.91L83.22 160.91L83.22 170.13L50.03 170.13L50.03 120.5L59.96 120.5Z" />
			<path id="path26" class="shp1" d="M101.44 120.5L101.44 151.55C101.44 157.01 105.97 160.77 112 160.77C117.96 160.77 122.49 157.01 122.49 151.55L122.49 120.5L132.21 120.5L132.21 151.34C132.21 162.33 124.9 170.13 112 170.13C99.03 170.13 91.79 162.33 91.79 151.34L91.79 120.5L101.44 120.5Z" />
			<path id="path28" class="shp1" d="M153.12 120.5L165.18 137.87L165.25 137.87L177.51 120.5L189.07 120.5L171.13 145.17L189.28 170.13L177.65 170.13L165.25 152.69L165.18 152.69L153.26 170.13L141.63 170.13L159.57 145.17L141.42 120.5L153.12 120.5Z" />
			<path id="path30" class="shp1" d="M234.02 120.5L234.02 129.71L208.85 129.71L208.85 141.41L230.33 141.41L230.33 150.35L208.85 150.35L208.85 160.91L234.51 160.91L234.51 170.13L198.92 170.13L198.92 120.5L234.02 120.5Z" />
			<path id="path32" class="shp1" d="M108.33 208.37C108.33 197.55 117.19 188.69 128.34 188.69C132.55 188.75 137.03 190.06 139.82 191.59L138.18 195.04C138.18 195.04 133.75 192.85 128.45 192.85C119.76 192.85 113.14 199.57 113.14 208.37C113.14 217.18 119.76 223.9 128.45 223.9C133.75 223.9 138.18 221.71 138.18 221.71L139.82 225.16C137.03 226.69 132.55 228 128.34 228.06C117.19 228.06 108.33 219.2 108.33 208.37Z" />
			<path id="path34" fill-rule="evenodd" class="shp1" d="M163.16 188.69C174.09 188.69 182.73 197.5 182.73 208.32C182.73 219.47 173.71 228.06 163.16 228.06C152.33 228.06 143.53 219.31 143.53 208.32C143.53 197.11 152.66 188.69 163.16 188.69ZM163.16 223.9C171.63 223.9 177.92 217.18 177.92 208.37C177.92 199.68 171.57 192.85 163.05 192.85C154.68 192.85 148.34 199.57 148.34 208.37C148.34 217.18 154.68 223.9 163.16 223.9Z" />
			<path id="path36" class="shp1" d="M197.1 189.24L210.55 219.8L210.65 219.8L224.05 189.24L230.33 189.24L230.33 227.51L225.8 227.51L225.8 196.07L225.63 196.07L212.62 225.27L208.52 225.27L195.51 196.02L195.4 196.02L195.4 227.51L190.81 227.51L190.81 189.24L197.1 189.24Z" />
			<path id="path38" class="shp1" d="M94.31 209.91C94.31 221.2 85.15 230.35 73.86 230.35C62.57 230.35 53.42 221.2 53.42 209.91C53.42 198.62 62.57 189.46 73.86 189.46C85.15 189.46 94.31 198.62 94.31 209.91Z" />
			<path id="path40" class="shp0" d="M1560.53 48.86L1577.97 88.5L1578.11 88.5L1595.48 48.86L1603.64 48.86L1603.64 98.49L1597.75 98.49L1597.75 57.73L1597.53 57.73L1580.67 95.59L1575.35 95.59L1558.47 57.65L1558.33 57.65L1558.33 98.49L1552.37 98.49L1552.37 48.86L1560.53 48.86Z" />
			<path id="path42" fill-rule="evenodd" class="shp0" d="M1650.28 48.15C1664.47 48.15 1675.67 59.57 1675.67 73.61C1675.67 88.07 1663.97 99.2 1650.28 99.2C1636.25 99.2 1624.83 87.86 1624.83 73.61C1624.83 59.07 1636.67 48.15 1650.28 48.15ZM1650.28 93.81C1661.28 93.81 1669.43 85.09 1669.43 73.68C1669.43 62.41 1661.2 53.54 1650.15 53.54C1639.29 53.54 1631.07 62.26 1631.07 73.68C1631.07 85.09 1639.29 93.81 1650.28 93.81Z" />
			<path id="path44" class="shp0" d="M1702.96 48.86L1718.64 72.47L1729.41 89.21L1729.55 89.21L1729.27 69.35L1729.27 48.86L1735.15 48.86L1735.15 98.49L1728.99 98.49L1713.17 74.1L1702.61 57.8L1702.47 57.8L1702.75 74.03L1702.75 98.49L1696.8 98.49L1696.8 48.86L1702.96 48.86Z" />
			<path id="path46" class="shp0" d="M1561.09 115.53L1561.09 155.94L1584.35 155.94L1584.35 165.16L1551.17 165.16L1551.17 115.53L1561.09 115.53Z" />
			<path id="path48" class="shp0" d="M1602.57 115.53L1602.57 146.58C1602.57 152.04 1607.11 155.8 1613.13 155.8C1619.09 155.8 1623.63 152.04 1623.63 146.58L1623.63 115.53L1633.35 115.53L1633.35 146.37C1633.35 157.36 1626.04 165.16 1613.13 165.16C1600.16 165.16 1592.93 157.36 1592.93 146.37L1592.93 115.53L1602.57 115.53Z" />
			<path id="path50" class="shp0" d="M1654.25 115.53L1666.31 132.9L1666.39 132.9L1678.64 115.53L1690.2 115.53L1672.27 140.2L1690.41 165.16L1678.79 165.16L1666.39 147.72L1666.31 147.72L1654.4 165.16L1642.77 165.16L1660.71 140.2L1642.56 115.53L1654.25 115.53Z" />
			<path id="path52" class="shp0" d="M1735.15 115.53L1735.15 124.75L1709.99 124.75L1709.99 136.45L1731.47 136.45L1731.47 145.38L1709.99 145.38L1709.99 155.94L1735.65 155.94L1735.65 165.16L1700.05 165.16L1700.05 115.53L1735.15 115.53Z" />
			<path id="path54" class="shp0" d="M1609.47 203.41C1609.47 192.58 1618.32 183.73 1629.47 183.73C1633.68 183.78 1638.16 185.09 1640.95 186.62L1639.31 190.07C1639.31 190.07 1634.88 187.88 1629.59 187.88C1620.89 187.88 1614.28 194.61 1614.28 203.41C1614.28 212.21 1620.89 218.93 1629.59 218.93C1634.88 218.93 1639.31 216.75 1639.31 216.75L1640.95 220.19C1638.16 221.72 1633.68 223.03 1629.47 223.09C1618.32 223.09 1609.47 214.23 1609.47 203.41Z" />
			<path id="path56" fill-rule="evenodd" class="shp0" d="M1664.29 183.73C1675.23 183.73 1683.87 192.53 1683.87 203.35C1683.87 214.51 1674.84 223.09 1664.29 223.09C1653.47 223.09 1644.67 214.34 1644.67 203.35C1644.67 192.15 1653.8 183.73 1664.29 183.73ZM1679.05 203.41C1679.05 194.72 1672.71 187.88 1664.19 187.88C1655.81 187.88 1649.48 194.61 1649.48 203.41C1649.48 212.21 1655.81 218.93 1664.29 218.93C1672.76 218.93 1679.05 212.21 1679.05 203.41Z" />
			<path id="path58" class="shp0" d="M1698.23 184.27L1711.68 214.83L1711.79 214.83L1725.19 184.27L1731.47 184.27L1731.47 222.54L1726.93 222.54L1726.93 191.11L1726.77 191.11L1713.76 220.3L1709.65 220.3L1696.64 191.05L1696.53 191.05L1696.53 222.54L1691.95 222.54L1691.95 184.27L1698.23 184.27Z" />
			<path id="path60" class="shp0" d="M1595.44 204.94C1595.44 216.23 1586.28 225.39 1575 225.39C1563.71 225.39 1554.55 216.23 1554.55 204.94C1554.55 193.65 1563.71 184.5 1575 184.5C1586.28 184.5 1595.44 193.65 1595.44 204.94Z" />
			<path id="path62" fill-rule="evenodd" class="shp0" d="M1780.91 273.14L1509.32 273.14L1509.32 1.56L1780.91 1.56L1780.91 273.14ZM1513.32 269.14L1776.91 269.14L1776.91 5.56L1513.32 5.56L1513.32 269.14Z" />
		</g>
	</g>
</svg>